<svg width="108" height="108" viewBox="0 0 108 108" fill="none" xmlns="http://www.w3.org/2000/svg">
<circle cx="54" cy="54" r="54" fill="#418B78"/>
<path d="M53.9869 34C63.3122 34 71 41.4358 71 50.6355C71 55.2714 69.314 59.5753 66.539 63.2232C63.4776 67.247 59.7043 70.7529 55.4571 73.5049C54.485 74.1408 53.6077 74.1888 52.5409 73.5049C48.2695 70.7529 44.4962 67.247 41.461 63.2232C38.684 59.5753 37 55.2714 37 50.6355C37 41.4358 44.6878 34 53.9869 34ZM53.9869 45.5537C50.9033 45.5537 48.3885 48.0956 48.3885 51.1535C48.3885 54.2354 50.9033 56.6593 53.9869 56.6593C57.0725 56.6593 59.6115 54.2354 59.6115 51.1535C59.6115 48.0956 57.0725 45.5537 53.9869 45.5537Z" fill="white"/>
</svg>
