<svg width="108" height="108" viewBox="0 0 108 108" fill="none" xmlns="http://www.w3.org/2000/svg">
<circle cx="54" cy="54" r="54" fill="#418B78"/>
<path d="M54.04 34C65.4 34 74 43.314 74 53.97C74 66.3285 63.92 74 54 74C50.72 74 47.08 73.1187 44.16 71.3961C43.14 70.7752 42.28 70.3145 41.18 70.675L37.14 71.8768C36.12 72.1973 35.2 71.3961 35.5 70.3145L36.84 65.8277C37.06 65.2068 37.02 64.5458 36.7 64.025C34.98 60.8603 34 57.3951 34 54.03C34 43.4942 42.42 34 54.04 34ZM63.18 51.4862C61.76 51.4862 60.62 52.6279 60.62 54.0501C60.62 55.4522 61.76 56.6139 63.18 56.6139C64.6 56.6139 65.74 55.4522 65.74 54.0501C65.74 52.6279 64.6 51.4862 63.18 51.4862ZM53.96 51.4862C52.56 51.4662 51.4 52.6279 51.4 54.03C51.4 55.4522 52.54 56.5939 53.96 56.6139C55.38 56.6139 56.52 55.4522 56.52 54.0501C56.52 52.6279 55.38 51.4862 53.96 51.4862ZM44.74 51.4862C43.32 51.4862 42.18 52.6279 42.18 54.0501C42.18 55.4522 43.34 56.6139 44.74 56.6139C46.16 56.5939 47.3 55.4522 47.3 54.0501C47.3 52.6279 46.16 51.4862 44.74 51.4862Z" fill="white"/>
</svg>
