<svg width="108" height="108" viewBox="0 0 108 108" fill="none" xmlns="http://www.w3.org/2000/svg">
<circle cx="54" cy="54" r="54" fill="#418B78"/>
<path d="M48.6987 59.7155C56.6693 59.7155 63.3973 60.9823 63.3973 65.8807C63.3973 70.7754 56.6263 72 48.6987 72L48.1572 71.998C40.4257 71.9405 34 70.6219 34 65.8347C34 60.9401 40.7711 59.7155 48.6987 59.7155ZM61.1394 56.7664C64.1707 56.7089 67.431 57.1171 68.6345 57.4046C71.1864 57.8933 72.8635 58.8879 73.5582 60.3387C74.1473 61.5269 74.1473 62.9068 73.5582 64.095C72.4956 66.3411 69.067 67.0636 67.7343 67.2495C67.4584 67.2878 67.2373 67.0578 67.2666 66.7857C67.9476 60.561 62.5328 57.6097 61.1316 56.9312C61.0729 56.8987 61.0592 56.8527 61.065 56.822C61.069 56.8028 61.0944 56.7722 61.1394 56.7664ZM48.6987 36C54.0979 36 58.4247 40.2373 58.4247 45.5248C58.4247 50.8123 54.0979 55.0496 48.6987 55.0496C43.3014 55.0496 38.9726 50.8123 38.9726 45.5248C38.9726 40.2373 43.3014 36 48.6987 36ZM61.6678 37.5909C66.8831 37.5909 70.977 42.3935 69.5817 47.7424C68.6404 51.3472 65.2333 53.7409 61.4369 53.6432C61.0553 53.6355 60.6815 53.5991 60.3175 53.5397C60.0553 53.4937 59.9222 53.2043 60.0729 52.9896C61.521 50.9026 62.3468 48.3901 62.3468 45.6975C62.3468 42.8841 61.4466 40.2643 59.8791 38.1121C59.8282 38.0451 59.7911 37.9435 59.8419 37.8649C59.8811 37.8036 59.9594 37.7691 60.0318 37.7538C60.5601 37.6484 61.1022 37.5909 61.6678 37.5909Z" fill="white"/>
</svg>
